<?xml version="1.0" encoding="UTF-8"?>
<svg width="64px" height="64px" viewBox="0 0 64 64" version="1.1" xmlns="http://www.w3.org/2000/svg" xmlns:xlink="http://www.w3.org/1999/xlink">
    <!-- Generator: Sketch 63.1 (92452) - https://sketch.com -->
    <title>icn86_feather</title>
    <desc>Created with Sketch.</desc>
    <defs>
        <linearGradient x1="50%" y1="0.364231419%" x2="50%" y2="98.9060262%" id="linearGradient-1">
            <stop stop-color="#BF9450" offset="0%"></stop>
            <stop stop-color="#A77019" offset="100%"></stop>
        </linearGradient>
    </defs>
    <g id="icn86_feather" stroke="none" stroke-width="1" fill="none" fill-rule="evenodd">
        <g>
            <rect id="Rectangle" fill="url(#linearGradient-1)" x="0" y="0" width="64" height="64" rx="12"></rect>
            <g id="feather" transform="translate(11.000000, 12.000000)" fill="#FFFFFF" fill-rule="nonzero">
                <path d="M42.0197702,0.152692846 C42.0197702,0.152692846 41.9763663,0.151500246 41.8922712,0.151500246 C40.8776046,0.151500246 32.931777,0.34400573 24.9153177,6.06659647 C24.1778532,7.4681 23.2587354,9.58009485 23.1572587,11.5545432 C23.1572587,11.5545432 22.2618523,11.0032639 22.530213,7.94126397 C21.9676703,8.42685085 21.4081418,8.94195458 20.8541392,9.49005357 C19.1622913,11.1634699 17.6122094,12.851893 16.2068072,14.5489625 C15.1024191,16.4608988 13.8354672,19.3150882 13.9736162,22.1823963 C13.9736162,22.1823963 13.3854532,20.7858619 13.2414768,18.4532361 C12.0436497,20.1855867 10.9989419,21.922012 10.1130804,23.6561515 C8.17135864,27.4584578 7.38054359,30.4994879 7.06204737,32.4657868 C4.89657451,34.4662736 2.72919269,36.4531448 0.567035402,38.4120894 C-0.0300696507,38.9531322 -0.173141768,39.8292955 0.221713163,40.5286559 C0.536090028,41.0858981 1.12616204,41.4146581 1.74687801,41.4146581 C1.90542282,41.4146581 2.06587659,41.3931913 2.22422045,41.348767 L4.99774981,40.5698006 C5.30027098,40.4849272 5.57385622,40.320746 5.789871,40.0948477 C7.190752,38.6295401 8.61504296,37.17914 10.0512901,35.7424547 C12.0241582,35.4578209 15.2079147,34.6954515 19.2374444,32.6818461 C23.5476929,30.5280109 27.8716056,27.426357 32.1125284,23.4499311 C29.1748278,23.7057438 28.6469479,22.8676443 28.6469479,22.8676443 C31.0908287,22.7443096 33.7548436,21.3367436 34.8714893,20.6824039 C36.9109703,18.4207378 38.4260879,16.111467 39.5519771,13.9520663 C37.0547457,14.2771492 36.6268355,13.5966716 36.6268355,13.5966716 C37.941612,13.5305817 39.3470142,12.9344805 40.2850207,12.4527696 C41.0297192,10.8232808 41.5550872,9.3147414 41.9231161,8.0238515 C42.0422759,7.60574589 42.147671,7.20175271 42.2421147,6.81137504 C40.407898,7.01918556 40.0906074,6.50696395 40.0906074,6.50696395 C40.8972971,6.45518524 41.7477925,6.1658804 42.458029,5.85182912 C43.0387571,3.0545863 43.0009796,1.21559741 42.9987693,1.1209845 C42.9851051,0.592861554 42.5537788,0.16750096 42.0197702,0.152692846 Z M4.52080926,38.9074158 L1.7472799,39.6863823 C13.3373271,29.1850441 24.8035928,18.1606516 36.2427311,7.50228786 C26.03337,18.4619818 14.8709316,28.0809949 4.52080926,38.9074158 Z" id="Shape"></path>
            </g>
        </g>
    </g>
</svg>