<?xml version="1.0" encoding="UTF-8"?>
<svg width="64px" height="64px" viewBox="0 0 64 64" version="1.1" xmlns="http://www.w3.org/2000/svg" xmlns:xlink="http://www.w3.org/1999/xlink">
    <!-- Generator: Sketch 63.1 (92452) - https://sketch.com -->
    <title>icn86_book</title>
    <desc>Created with Sketch.</desc>
    <defs>
        <linearGradient x1="50%" y1="0%" x2="50%" y2="100%" id="linearGradient-1">
            <stop stop-color="#FFA245" offset="0%"></stop>
            <stop stop-color="#FF6E04" offset="100%"></stop>
        </linearGradient>
    </defs>
    <g id="icn86_book" stroke="none" stroke-width="1" fill="none" fill-rule="evenodd">
        <g>
            <rect id="Rectangle" fill="url(#linearGradient-1)" x="0" y="0" width="64" height="64" rx="12"></rect>
            <g id="book" transform="translate(11.000000, 13.000000)" fill="#FFFFFF" fill-rule="nonzero">
                <path d="M39.9775121,5.16339696 L39.9775121,3.49030607 L39.7999119,3.19164959 C39.7094862,3.0396946 39.1955837,2.2425504 37.9523826,1.47514299 C36.3667829,0.496307012 34.3341349,0 31.9107258,0 C28.8231449,0 25.1536898,0.82628625 20.9998984,2.45219476 C16.846107,0.826385373 13.1765503,0 10.089071,0 C7.66616995,0 5.63362346,0.496307012 4.04782064,1.47504387 C2.8046195,2.24235215 2.29051377,3.0392981 2.20008806,3.1912531 L2.02228469,3.49000871 L2.02228469,5.16329784 C0.859552274,5.46443239 0,6.49957002 0,7.7272038 L0,29.060872 L0.00132082501,30.7032349 C0.0021336404,31.5088045 0.371253429,32.2605505 1.01063433,32.7631023 C1.64046466,33.2603014 2.48569106,33.4617186 3.28936228,33.2945978 L4.92647407,32.9527239 C5.01171809,32.935873 6.69394114,32.6091648 8.83286484,32.6091648 C11.5059098,32.6091648 15.0665493,33.0951631 16.850171,35.410866 L17.258306,35.9407756 C17.7689572,36.6040051 18.581671,37 19.4321807,37 L22.5677177,37 C23.4181258,37 24.230738,36.6040051 24.741186,35.9410729 L25.1497274,35.4107669 C26.9332475,33.0952622 30.493887,32.6092639 33.1668304,32.6092639 C35.2754767,32.6092639 36.9454059,32.927745 37.0695635,32.95203 L38.704948,33.297175 C38.8939276,33.3371214 39.0877841,33.3574416 39.2810309,33.3574416 L39.2811325,33.3574416 C39.8990754,33.3574416 40.5046229,33.1490858 40.9891625,32.7687523 C41.6314898,32.262533 42,31.5102913 42,30.70492 L42,7.7272038 C42,6.49957002 41.1401429,5.46443239 39.9775121,5.16339696 Z M19.6849663,28.1872051 C14.6604464,26.0495265 7.47322789,25.9791494 6.56206184,25.9791494 C5.93019948,25.9791494 5.29152979,25.996595 4.65194568,26.0311888 L4.65194568,4.27258188 C5.1335388,3.77726609 6.66396857,2.56569017 10.0889694,2.56569017 C12.760592,2.56569017 15.9853355,3.28373451 19.6849663,4.70138638 L19.6849663,28.1872051 Z M37.3477495,26.0311888 C36.7080638,25.996595 36.0693941,25.9791494 35.4374301,25.9791494 C34.5262641,25.9791494 27.3390456,26.0495265 22.3147289,28.187106 L22.3147289,4.70138638 C26.0143597,3.28373451 29.2391032,2.56569017 31.9107258,2.56569017 C35.3516781,2.56569017 36.8567074,3.75545911 37.3477495,4.2717889 L37.3477495,26.0311888 Z" id="Shape"></path>
                <path d="M7.62928779,9.13963174 C7.86270343,9.46749737 8.33255218,9.55388942 8.67849012,9.33288438 C8.69377213,9.3230189 10.2361842,8.36210337 12.3482162,9.12552504 C12.3603834,9.12995067 12.3726479,9.1340075 12.3851071,9.13778773 L16.2613836,10.3250559 C16.3386697,10.3487515 16.4170265,10.36 16.4941179,10.36 C16.8130933,10.36 17.1096811,10.1671162 17.213151,9.86414472 C17.3415393,9.48787373 17.1236977,9.08431133 16.7265602,8.96269863 L12.8682911,7.78096246 C10.0408276,6.76813794 7.92227406,8.08891274 7.83330746,8.14580056 C7.48717485,8.36689781 7.39587215,8.81185831 7.62928779,9.13963174 Z" id="Path"></path>
                <path d="M16.7265169,14.8826986 L12.8682659,13.7009625 C10.0408157,12.6881379 7.92227208,14.0089127 7.8333059,14.0658006 C7.48717491,14.2868978 7.39587264,14.7318583 7.62928718,15.0596317 C7.86270173,15.3874974 8.33254827,15.4739816 8.67848459,15.2528844 C8.69376652,15.2431111 10.2361714,14.2820112 12.3481934,15.045525 C12.3603606,15.0499507 12.372625,15.0540075 12.3850842,15.0577877 L16.2613425,16.2450559 C16.3386282,16.2687515 16.4169847,16.28 16.4940757,16.28 C16.8130496,16.28 17.109636,16.0871162 17.2131054,15.7841447 C17.3415905,15.4079659 17.1237499,15.0043113 16.7265169,14.8826986 Z" id="Path"></path>
                <path d="M16.7265169,20.8027539 L12.8682659,19.6209722 C10.040621,18.6080955 7.92227208,19.9290025 7.8333059,19.9857959 C7.48717491,20.2068844 7.39587264,20.6518273 7.62928718,20.9795878 C7.86270173,21.3074405 8.33254827,21.3939213 8.67848459,21.1728328 C8.69376652,21.1629677 10.2361714,20.2019979 12.3481934,20.9654816 C12.3603606,20.9698149 12.372625,20.9739638 12.3850842,20.9777438 L16.2613425,22.1650573 C16.3386282,22.188752 16.4169847,22.2 16.4940757,22.2 C16.8130496,22.2 17.109636,22.007216 17.2131054,21.7041643 C17.3415905,21.3280004 17.1237499,20.9243617 16.7265169,20.8027539 Z" id="Path"></path>
                <path d="M34.1666892,8.14586041 C34.0777217,8.08897412 31.9596337,6.76805062 29.1317526,7.78103216 L25.273445,8.96273639 C24.8763035,9.08434581 24.6584597,9.48798949 24.7868494,9.86415812 C24.8903203,10.1672136 25.1868137,10.36 25.5058896,10.36 C25.5829818,10.36 25.6613394,10.3487518 25.7386262,10.3250569 L29.6149414,9.13782076 C29.6273034,9.13404063 29.6396654,9.12989172 29.6518328,9.1255584 C31.7268971,8.37534171 33.2528744,9.29068536 33.3252943,9.33530929 C33.6709437,9.55335801 34.1380717,9.46623072 34.3707109,9.13966472 C34.6041289,8.81190015 34.5128253,8.36695167 34.1666892,8.14586041 Z" id="Path"></path>
                <path d="M34.1666892,14.0658604 C34.0777217,14.0089741 31.9596337,12.6880506 29.1317526,13.7010322 L25.273445,14.8827364 C24.8763035,15.0043458 24.6584597,15.4079895 24.7868494,15.7841581 C24.8903203,16.0872136 25.1868137,16.28 25.5058896,16.28 C25.5829818,16.28 25.6613394,16.2687518 25.7386262,16.2450569 L29.6149414,15.0578208 C29.6273034,15.0540406 29.6396654,15.0498917 29.6518328,15.0455584 C31.7268971,14.2953417 33.2528744,15.2106854 33.3252943,15.2553093 C33.6709437,15.4731736 34.1380717,15.3862307 34.3707109,15.0596647 C34.6041289,14.7319001 34.5128253,14.2869517 34.1666892,14.0658604 Z" id="Path"></path>
                <path d="M34.1667125,19.9858372 C34.0777449,19.9289527 31.9596536,18.6080703 29.1317682,19.6210203 L25.2734547,20.8027799 C24.8762153,20.9243855 24.6584685,21.3280167 24.7868583,21.7041736 C24.8903294,22.0072196 25.1868233,22.2 25.5058997,22.2 C25.582992,22.2 25.6613497,22.1887522 25.7386366,22.165058 L29.6149578,20.9777666 C29.6273198,20.9739866 29.6396818,20.9698378 29.6518492,20.9655047 C31.7269167,20.2154035 33.2528963,21.1306265 33.325219,21.175249 C33.6708689,21.3931987 34.1379976,21.3062586 34.3706372,20.9796105 C34.6041529,20.6518562 34.5128491,20.2069216 34.1667125,19.9858372 Z" id="Path"></path>
            </g>
        </g>
    </g>
</svg>