<?xml version="1.0" encoding="UTF-8"?>
<svg width="64px" height="64px" viewBox="0 0 64 64" version="1.1" xmlns="http://www.w3.org/2000/svg" xmlns:xlink="http://www.w3.org/1999/xlink">
    <!-- Generator: Sketch 63.1 (92452) - https://sketch.com -->
    <title>icn86_math</title>
    <desc>Created with Sketch.</desc>
    <defs>
        <linearGradient x1="50%" y1="0.364231419%" x2="50%" y2="98.9060262%" id="linearGradient-1">
            <stop stop-color="#FD5858" offset="0%"></stop>
            <stop stop-color="#DE2C2C" offset="100%"></stop>
        </linearGradient>
    </defs>
    <g id="icn86_math" stroke="none" stroke-width="1" fill="none" fill-rule="evenodd">
        <g id="icn86_book">
            <rect id="Rectangle" fill="url(#linearGradient-1)" x="0" y="0" width="64" height="64" rx="12"></rect>
            <g id="protractor" transform="translate(7.000000, 16.000000)" fill="#FFFFFF" fill-rule="nonzero">
                <path d="M42.6952102,7.28894286 C38.2310056,2.58856071 31.9466704,0 25.0001033,0 C18.0535362,0 11.7692009,2.58856071 7.30489306,7.28894286 C2.52604317,12.3205464 0,19.4699786 0,27.9642857 C0,28.5362071 0.462312782,29 1.03263967,29 L48.9673603,29 C49.5376872,29 50,28.5362071 50,27.9642857 C50,19.4699786 47.4740601,12.3205464 42.6952102,7.28894286 Z M38.1827814,9.28528214 C38.4941222,9.57952857 38.5084759,10.0710786 38.2153095,10.3833464 L36.4457782,12.2668964 C36.2933605,12.4290893 36.0878652,12.5109107 35.8819569,12.5109107 C35.6913316,12.5109107 35.5004998,12.4408964 35.3508703,12.2994179 C35.0395294,12.0051714 35.0250725,11.5136214 35.3183422,11.2013536 L37.0878735,9.31780357 C37.381453,9.00563929 37.8713372,8.99103571 38.1827814,9.28528214 Z M32.7288949,9.03401786 L34.1662261,7.09360714 C34.4212881,6.74923214 34.9064222,6.67745714 35.2497749,6.93327857 C35.5931276,7.1891 35.6646895,7.67578214 35.4096275,8.02005357 L33.9722963,9.96046429 C33.8202918,10.1656393 33.5867087,10.2740786 33.3500277,10.2740786 C33.1894522,10.2740786 33.0275343,10.2242607 32.8887475,10.1207929 C32.5453948,9.86497143 32.4740394,9.37828929 32.7288949,9.03401786 Z M29.3969797,8.149725 L30.6455444,4.29541786 C30.777619,3.88734643 31.2151484,3.66394286 31.6213889,3.79672143 C32.0282489,3.92929286 32.250886,4.36750357 32.1186049,4.77547143 L30.8700402,8.62977857 C30.7636783,8.95799643 30.4600823,9.16679643 30.1336649,9.16679643 C30.0542549,9.16679643 29.9736057,9.15447143 29.8941957,9.12857857 C29.487439,8.99590357 29.2646986,8.55769286 29.3969797,8.149725 Z M25.6515956,7.44833929 L26.0117804,4.885775 C26.0715702,4.460925 26.4633537,4.16553929 26.8868392,4.22498929 C27.310428,4.28495714 27.6053499,4.67780357 27.5455601,5.10265357 L27.1854786,7.66521786 C27.1309552,8.0533 26.7993746,8.33366786 26.4195698,8.33366786 C26.3835306,8.33366786 26.3471817,8.33118214 26.3104197,8.32600357 C25.886831,8.26603571 25.5918058,7.87318929 25.6515956,7.44833929 Z M22.8066733,4.22302143 C23.2299523,4.16357143 23.6220456,4.45895714 23.6817322,4.88380714 L24.0419169,7.44637143 C24.1016035,7.87122143 23.8066816,8.26406786 23.3830928,8.32403571 C23.3465374,8.32921429 23.3098786,8.3317 23.2739428,8.3317 C22.8941379,8.3317 22.5625573,8.05122857 22.5079307,7.66325 L22.1478492,5.10068571 C22.0880594,4.67583571 22.3831878,4.28288571 22.8066733,4.22302143 Z M18.3788177,3.79651429 C18.7852646,3.66394286 19.2225875,3.88713929 19.3546622,4.29521071 L20.6033301,8.14962143 C20.7354047,8.55758929 20.5128708,8.9958 20.1061141,9.12837143 C20.0266008,9.15436786 19.9459516,9.16658929 19.8666449,9.16658929 C19.5403308,9.16658929 19.2365282,8.95789286 19.1302696,8.62957143 L17.8816017,4.77516071 C17.7492173,4.3674 17.9719576,3.92908571 18.3788177,3.79651429 Z M14.6702988,6.93327857 C15.0136515,6.67756071 15.4987856,6.74923214 15.7538476,7.09360714 L17.1911788,9.03401786 C17.4462408,9.37839286 17.3746788,9.86497143 17.0313262,10.1207929 C16.8925394,10.2241571 16.7306215,10.2740786 16.570046,10.2740786 C16.333365,10.2740786 16.0996786,10.1656393 15.9477773,9.96046429 L14.5104462,8.02005357 C14.2554874,7.67567857 14.3269461,7.1891 14.6702988,6.93327857 Z M11.7373956,9.28528214 C12.0487365,8.99124286 12.5388273,9.00563929 12.8323034,9.31790714 L14.6018348,11.2014571 C14.8951045,11.513725 14.880441,12.005275 14.5693066,12.2995214 C14.4197804,12.4408964 14.2287421,12.5110143 14.0382201,12.5110143 C13.8323117,12.5110143 13.6269197,12.4291929 13.4742955,12.267 L11.7048675,10.38345 C11.4115978,10.0710786 11.4260547,9.57952857 11.7373956,9.28528214 Z M8.38823534,25.0123964 L4.3475163,25.0123964 C3.91969368,25.0123964 3.57303654,24.6647071 3.57303654,24.2356107 C3.57303654,23.8065143 3.91969368,23.458825 4.3475163,23.458825 L8.38833861,23.458825 C8.81616122,23.458825 9.16281836,23.8065143 9.16281836,24.2356107 C9.1627151,24.6647071 8.81605796,25.0123964 8.38823534,25.0123964 Z M9.57639055,20.9674143 C9.48520847,21.31645 9.17138927,21.5476214 8.82772679,21.5476214 C8.76277375,21.5476214 8.69668481,21.5393357 8.63090567,21.5220393 L6.13491231,20.866225 C5.72113359,20.757475 5.47360986,20.3330393 5.58203703,19.9180286 C5.69036093,19.5030179 6.11353667,19.25455 6.52741865,19.3635071 L9.02341201,20.0193214 C9.43729399,20.1279679 9.68481772,20.5525071 9.57639055,20.9674143 Z M10.5120654,17.8107643 C10.392589,18.1173357 10.1001454,18.3048 9.79066329,18.3048 C9.69679634,18.3048 9.60138043,18.2876071 9.50875265,18.25115 L7.26420706,17.3704821 C6.86591793,17.2141929 6.66930334,16.7636571 6.82512867,16.3640786 C6.98085073,15.9646036 7.43035878,15.7673 7.82854464,15.9236929 L10.0730902,16.8043607 C10.4712761,16.96065 10.6678907,17.4112893 10.5120654,17.8107643 Z M11.1056266,15.0707821 L7.83659923,12.6886393 C7.49045841,12.4364429 7.41383655,11.9506929 7.66528431,11.603625 C7.91673207,11.2564536 8.40134987,11.1799143 8.74707763,11.4316964 L12.016105,13.8138393 C12.3622459,14.0660357 12.4388677,14.5517857 12.18742,14.8988536 C12.0359317,15.1080679 11.7996638,15.2192 11.5602979,15.2192 C11.402304,15.2192 11.243071,15.1710393 11.1056266,15.0707821 Z M11.8386976,22.4969571 C13.2327611,15.450475 18.0923634,11.1041 25.0001033,11.1041 C31.9078431,11.1041 36.7674454,15.450475 38.161509,22.4969571 L11.8386976,22.4969571 Z M38.4401152,15.2192 C38.200646,15.2192 37.9645846,15.1081714 37.8129931,14.8988536 C37.5615453,14.5517857 37.6382705,14.0660357 37.984308,13.8138393 L41.2531289,11.4316964 C41.599373,11.1795 42.0835777,11.2565571 42.3349222,11.6035214 C42.58637,11.9505893 42.5096449,12.4364429 42.1636073,12.6885357 L38.8947864,15.0706786 C38.7572388,15.1709357 38.5979025,15.2192 38.4401152,15.2192 Z M39.4880379,17.8107643 C39.3323158,17.4112893 39.5288272,16.96065 39.9271163,16.8043607 L42.1716619,15.9236929 C42.5703641,15.7670929 43.0192525,15.9646036 43.1750779,16.3640786 C43.3307999,16.7635536 43.1342886,17.2141929 42.7359995,17.3704821 L40.4914539,18.25115 C40.3987228,18.2876071 40.3033069,18.3048 40.2095432,18.3048 C39.8999579,18.3048 39.6077208,18.1173357 39.4880379,17.8107643 Z M40.4237127,20.9674143 C40.3152855,20.5524036 40.5629125,20.1279679 40.976588,20.0192179 L43.4726846,19.3634036 C43.8862568,19.2546536 44.3097423,19.5030179 44.4180662,19.917925 C44.5264934,20.3329357 44.2788664,20.7573714 43.865191,20.8661214 L41.3690943,21.5219357 C41.3033152,21.5392321 41.2373295,21.5475179 41.1723765,21.5475179 C40.828714,21.5476214 40.5148948,21.3165536 40.4237127,20.9674143 Z M45.6526902,25.0123964 L41.6118679,25.0126036 C41.1842518,25.0126036 40.8373882,24.6649143 40.8373882,24.2358179 C40.8373882,23.806825 41.1841486,23.4590321 41.6118679,23.4590321 L45.6526902,23.458825 C46.0804096,23.458825 46.42717,23.8065143 46.42717,24.2356107 C46.42717,24.6646036 46.0804096,25.0123964 45.6526902,25.0123964 Z" id="Shape"></path>
            </g>
        </g>
    </g>
</svg>