<?xml version="1.0" encoding="UTF-8"?>
<svg width="64px" height="64px" viewBox="0 0 64 64" version="1.1" xmlns="http://www.w3.org/2000/svg" xmlns:xlink="http://www.w3.org/1999/xlink">
    <!-- Generator: Sketch 63.1 (92452) - https://sketch.com -->
    <title>icn86_art</title>
    <desc>Created with Sketch.</desc>
    <defs>
        <linearGradient x1="50%" y1="0.364231419%" x2="50%" y2="100%" id="linearGradient-1">
            <stop stop-color="#FF4876" offset="0%"></stop>
            <stop stop-color="#CC103F" offset="100%"></stop>
        </linearGradient>
    </defs>
    <g id="icn86_art" stroke="none" stroke-width="1" fill="none" fill-rule="evenodd">
        <g id="icn86_book">
            <rect id="Rectangle" fill="url(#linearGradient-1)" x="0" y="0" width="64" height="64" rx="12"></rect>
            <g id="paint-and-brush" transform="translate(11.000000, 12.000000)" fill="#FFFFFF" fill-rule="nonzero">
                <path d="M31.631682,30 C29.3407323,33.3060625 26.6679052,36.5811094 24.2515206,39.0356887 C23.406175,39.8944089 22.6118235,40.6347527 21.877193,41.25 C29.0887058,41.1149785 35.8634567,37.2476359 32.1356299,30.7784931 C31.9692945,30.5111381 31.8010665,30.2522607 31.631682,30 Z" id="Path"></path>
                <path d="M15.5693328,32.767575 C15.5693328,31.1238991 16.935759,29.7906156 18.622223,29.7906156 C18.8435088,29.7906156 19.0591424,29.81422 19.2670977,29.8577893 C20.4515897,27.7028239 21.8216418,25.4835963 23.280848,23.3684567 C24.4167104,21.7220772 25.4689642,20.3403372 26.4494467,19.2091987 C26.2822293,17.5453499 26.4039098,15.5651816 26.9329694,13.0839142 C29.604075,0.557267585 7.72984516,-8.21586675 1.31927691,12.0255645 C-2.64946972,24.5276709 2.54024104,33.9041207 14.1407333,39.2620029 C14.5373414,39.4415833 14.9475998,39.6041104 15.3688426,39.75 C15.4764461,38.5599025 15.9271226,37.0025334 16.717246,35.0927624 C16.0176631,34.54747 15.5693328,33.7089426 15.5693328,32.767575 Z M5.21774532,18.2724063 C5.21774532,16.6280026 6.58449143,15.295239 8.27074219,15.295239 C9.95645972,15.295239 11.3236324,16.6278986 11.3236324,18.2724063 C11.3236324,19.9159782 9.95645972,21.2492617 8.27074219,21.2492617 C6.58459808,21.2492617 5.21774532,19.9158743 5.21774532,18.2724063 Z M10.8657042,29.7906156 C9.17934681,29.7906156 7.8126007,28.458268 7.8126007,26.8144881 C7.8126007,25.1699804 9.17924017,23.8373208 10.8657042,23.8373208 C12.5515284,23.8373208 13.9188077,25.1699804 13.9188077,26.8144881 C13.9188077,28.458372 12.5515284,29.7906156 10.8657042,29.7906156 Z M13.3865488,8.00304551 C13.3865488,5.9083908 15.1285743,4.21001931 17.2765924,4.21001931 C19.4246105,4.21001931 21.1658894,5.9083908 21.1658894,8.00304551 C21.1658894,10.0974923 19.4246105,11.7955518 17.2765924,11.7955518 C15.1285743,11.7955518 13.3865488,10.0973883 13.3865488,8.00304551 Z" id="Shape"></path>
                <path d="M31.8672501,19.0740047 C31.8670408,19.0738986 31.8668316,19.0736864 31.8662038,19.0735803 C31.1165647,18.5856442 30.5031475,17.9601014 30.0467727,17.25 C28.5511563,18.2935616 26.6531516,20.4083758 24.155331,24.1736215 C19.044393,31.8782166 15.2678439,40.691092 17.0398799,41.8683347 C17.1733816,41.9571372 17.3350274,42 17.5212602,42 C19.8056455,42 25.8463872,35.5617683 30.571677,28.4377312 C33.1643926,24.529574 34.3718713,21.9064532 34.7017544,20.1159749 C34.1884634,20.0424502 33.6561307,19.904207 33.1016175,19.696789 C32.667737,19.5340376 32.252166,19.3246038 31.8672501,19.0740047 Z" id="Path"></path>
                <path d="M42.9771926,7.48056395 C42.8755878,7.04134787 42.4551913,6.73284966 41.9807131,6.75073951 C38.1790816,6.88471007 35.1410449,7.58373551 32.9508974,8.82829964 C30.4595912,10.2440371 29.6921257,11.9908383 29.4868733,13.2068397 C29.3298966,14.1371118 29.4587035,15.0653509 29.8198574,15.9102396 C30.4187343,17.3117464 31.6572374,18.4837347 33.2936657,19.0547868 C34.1519842,19.3543401 34.9255783,19.5 35.6585304,19.5 C35.6585304,19.5 35.6585304,19.5 35.6585304,19.5 C35.7697043,19.5 35.8802331,19.4962391 35.9900093,19.4893271 C36.8224158,19.4371822 37.6155782,19.1881474 38.3522935,18.7463902 C40.5476019,17.4298601 40.3631005,15.26651 40.2003178,13.3578869 C39.9977534,10.9819933 39.995388,9.47812801 42.3939059,8.53697975 C42.8332256,8.36468832 43.0787973,7.91978002 42.9771926,7.48056395 Z" id="Path"></path>
            </g>
        </g>
    </g>
</svg>