<?xml version="1.0" encoding="UTF-8"?>
<svg width="64px" height="64px" viewBox="0 0 64 64" version="1.1" xmlns="http://www.w3.org/2000/svg" xmlns:xlink="http://www.w3.org/1999/xlink">
    <!-- Generator: Sketch 63.1 (92452) - https://sketch.com -->
    <title>icn86_biology</title>
    <desc>Created with Sketch.</desc>
    <defs>
        <linearGradient x1="50%" y1="0%" x2="50%" y2="100%" id="linearGradient-1">
            <stop stop-color="#96E42A" offset="0%"></stop>
            <stop stop-color="#6BB705" offset="100%"></stop>
        </linearGradient>
    </defs>
    <g id="icn86_biology" stroke="none" stroke-width="1" fill="none" fill-rule="evenodd">
        <g id="icn86_book">
            <rect id="Rectangle" fill="url(#linearGradient-1)" x="0" y="0" width="64" height="64" rx="12"></rect>
            <g id="microscope" transform="translate(16.000000, 11.000000)" fill="#FFFFFF" fill-rule="nonzero">
                <path d="M31.4286497,34.4665543 L13.9307985,34.4665543 C14.3298186,33.6163145 14.5539336,32.6651543 14.5539336,31.6613949 C14.5539336,28.8459295 12.794297,26.4418265 10.3374242,25.5313067 C10.9415811,21.1401996 13.972379,17.4208258 17.95352,15.8127107 L17.95352,21.7143181 C17.95352,22.0360384 18.2093925,22.2968953 18.5249656,22.2968953 L19.0832504,22.2968953 L19.0832504,26.3772686 C19.0832504,26.6989889 19.339123,26.9598457 19.654696,26.9598457 L25.3699149,26.9598457 C25.6855833,26.9598457 25.9413605,26.6989889 25.9413605,26.3772686 L25.9413605,22.296798 L26.4994546,22.296798 C26.8150276,22.296798 27.0709002,22.0359411 27.0709002,21.7142209 L27.0709002,3.21982759 C27.0709002,2.89810734 26.8150276,2.63725045 26.4994546,2.63725045 L25.9413605,2.63725045 L25.9413605,0.582577132 C25.9413605,0.260856884 25.6854879,0 25.3699149,0 L19.654696,0 C19.3390276,0 19.0832504,0.260856884 19.0832504,0.582577132 L19.0832504,2.63725045 L18.5249656,2.63725045 C18.2092972,2.63725045 17.95352,2.89810734 17.95352,3.21982759 L17.95352,9.8656015 C12.9737797,10.8843337 8.56987202,13.8482629 5.85722204,18.3077197 C4.0999696,21.1967851 3.2054169,24.426238 3.11167007,27.6636635 C2.2675671,28.7686349 1.76297453,30.1556585 1.76297453,31.6613949 C1.76297453,32.6651543 1.98708954,33.6163145 2.38610964,34.4665543 L0.571445601,34.4665543 C0.25577722,34.4665543 0,34.7274112 0,35.0491314 L0,38.707253 C0,39.0289733 0.255872588,39.2898302 0.571445601,39.2898302 L4.22051486,39.2898302 L4.22051486,41.4174229 C4.22051486,41.7391431 4.47638745,42 4.79196047,42 L9.48769453,42 C9.80336291,42 10.0591401,41.7391431 10.0591401,41.4174229 L10.0591401,39.2898302 L21.9408598,39.2898302 L21.9408598,41.4174229 C21.9408598,41.7391431 22.1967324,42 22.5123054,42 L27.2080395,42 C27.5237079,42 27.7794851,41.7391431 27.7794851,41.4174229 L27.7794851,39.2898302 L31.4285544,39.2898302 C31.7442228,39.2898302 32,39.0289733 32,38.707253 L32,35.0491314 C32,34.7274112 31.7443181,34.4665543 31.4286497,34.4665543 Z M8.15864481,34.4910552 C6.62817769,34.4910552 5.38305189,33.2216749 5.38305189,31.6613949 C5.38305189,30.1011149 6.62817769,28.8317345 8.15864481,28.8317345 C9.6889212,28.8317345 10.9338563,30.1011149 10.9338563,31.6613949 C10.9338563,33.2216749 9.6889212,34.4910552 8.15864481,34.4910552 Z" id="Shape"></path>
                <rect id="Rectangle" x="17.8604651" y="30.75" width="8.18604651" height="3"></rect>
            </g>
        </g>
    </g>
</svg>