<?xml version="1.0" encoding="UTF-8"?>
<svg width="64px" height="64px" viewBox="0 0 64 64" version="1.1" xmlns="http://www.w3.org/2000/svg" xmlns:xlink="http://www.w3.org/1999/xlink">
    <!-- Generator: Sketch 63.1 (92452) - https://sketch.com -->
    <title>icn86_chemical</title>
    <desc>Created with Sketch.</desc>
    <defs>
        <linearGradient x1="50%" y1="0%" x2="50%" y2="100%" id="linearGradient-1">
            <stop stop-color="#9A3FFF" offset="0%"></stop>
            <stop stop-color="#692FA9" offset="100%"></stop>
        </linearGradient>
    </defs>
    <g id="icn86_chemical" stroke="none" stroke-width="1" fill="none" fill-rule="evenodd">
        <g id="icn86_book">
            <rect id="Rectangle" fill="url(#linearGradient-1)" x="0" y="0" width="64" height="64" rx="12"></rect>
            <g id="flask" transform="translate(19.000000, 8.000000)" fill="#FFFFFF" fill-rule="nonzero">
                <path d="M26.8612043,43.0399802 L18.7053257,26.2750429 L18.7053257,15.6438548 C19.4504602,15.5420464 20.02578,14.8902648 20.02578,14.1001068 C20.02578,13.2394101 19.3437804,12.5409836 18.5026239,12.5409836 L8.49745971,12.5409836 C7.65650622,12.5409836 6.97430363,13.2394101 6.97430363,14.1001068 C6.97430363,14.8902648 7.54972492,15.5420464 8.29465644,15.6438548 L8.29465644,26.2750429 L0.139082377,43.0399802 C-0.0657509534,43.4603035 -0.0430142507,43.958957 0.198563216,44.3578798 C0.440039179,44.7571142 0.866047846,45 1.32484203,45 L25.6752416,45 C26.1340358,45 26.5600445,44.7571142 26.8015204,44.3578798 C27.0429964,43.958957 27.0656316,43.4603035 26.8612043,43.0399802 Z M8.50862505,31.9186574 L10.9437868,26.9124882 L10.9437868,15.6593338 L16.0561953,15.6593338 L16.0561953,17.2031858 L14.0048169,17.2031858 C13.4443166,17.2031858 12.9897856,17.668284 12.9897856,18.2420471 C12.9897856,18.8158103 13.4443166,19.2809085 14.0048169,19.2809085 L16.0561953,19.2809085 L16.0561953,22.6258344 L14.0048169,22.6258344 C13.4443166,22.6258344 12.9897856,23.0909327 12.9897856,23.6646958 C12.9897856,24.238459 13.4443166,24.7035572 14.0048169,24.7035572 L16.0561953,24.7035572 L16.0561953,26.9124882 L18.4913571,31.9186574 L8.50862505,31.9186574 L8.50862505,31.9186574 Z" id="Shape"></path>
                <path d="M16.1250555,3.68852459 C17.1588567,3.68852459 18,2.86117054 18,1.84409846 C18,0.827244833 17.1588567,0 16.1250555,0 C15.0912543,0 14.25,0.827244833 14.25,1.84409846 C14.250111,2.86106131 15.0913654,3.68852459 16.1250555,3.68852459 Z" id="Path"></path>
                <path d="M16.1251123,5.90163934 C14.6774326,5.90163934 13.5,7.05988024 13.5,8.48382743 C13.5,9.90755374 14.6774326,11.0655738 16.1251123,11.0655738 C17.5724551,11.0655738 18.75,9.90755374 18.75,8.48382743 C18.75,7.05999067 17.5724551,5.90163934 16.1251123,5.90163934 Z" id="Path"></path>
                <path d="M10.536527,9.59016393 C11.2173902,9.59016393 11.846763,9.37130544 12.3540096,9.00184096 C12.2932488,8.77622575 12.2608028,8.53954522 12.2608028,8.29571629 C12.2608028,7.34458762 12.7519271,6.50332885 13.5,5.99745726 C13.1975061,4.67803918 11.9838022,3.68852459 10.536527,3.68852459 C8.86223025,3.68852459 7.5,5.01215337 7.5,6.63914842 C7.5,8.26643724 8.86212948,9.59016393 10.536527,9.59016393 Z" id="Path"></path>
            </g>
        </g>
    </g>
</svg>