<?xml version="1.0" encoding="UTF-8"?>
<svg width="32px" height="32px" viewBox="0 0 32 32" version="1.1" xmlns="http://www.w3.org/2000/svg" xmlns:xlink="http://www.w3.org/1999/xlink">
    <!-- Generator: Sketch 63.1 (92452) - https://sketch.com -->
    <title>icn32_tax</title>
    <desc>Created with Sketch.</desc>
    <g id="icn32_tax" stroke="none" stroke-width="1" fill="none" fill-rule="evenodd">
        <path d="M16.072,28.1875 C22.4352812,28.1875 27.7087187,22.9023438 27.7087187,16.5390625 C27.7087187,10.8203125 23.4430937,5.98046875 17.9704375,5.06640625 L17.9704375,3.859375 C17.9704375,3.02734375 17.197,2.74609375 16.54075,3.23828125 L13.400125,5.58203125 C12.97825,5.8984375 12.97825,6.49609375 13.400125,6.82421875 L16.54075,9.15625 C17.1852812,9.63671875 17.9704375,9.35546875 17.9704375,8.546875 L17.9704375,7.08203125 C22.400125,7.9609375 25.7165312,11.8398438 25.7165312,16.5390625 C25.7165312,21.8945312 21.41575,26.171875 16.072,26.1835938 C10.7165312,26.1953125 6.41575,21.90625 6.41575,16.5507812 C6.41575,13.3515625 7.962625,10.5507812 10.3298125,8.79296875 C10.9040312,8.34765625 10.9274687,7.73828125 10.6462187,7.33984375 C10.35325,6.953125 9.7673125,6.77734375 9.1345,7.2578125 C6.2985625,9.296875 4.43528125,12.7421875 4.43528125,16.5507812 C4.43528125,22.796875 10.072,28.1875 16.072,28.1875 Z M20.0798125,17.7226562 C20.6423125,17.7226562 21.0290312,17.4179688 21.0290312,16.890625 C21.0290312,16.3515625 20.6774687,16.0351562 20.0798125,16.0351562 L12.0524687,16.0351562 C11.47825,16.0351562 11.10325,16.3515625 11.10325,16.890625 C11.10325,17.4179688 11.5016875,17.7226562 12.0524687,17.7226562 L20.0798125,17.7226562 Z" id="-tax" fill="#EB4250" fill-rule="nonzero"></path>
    </g>
</svg>