<?xml version="1.0" encoding="UTF-8"?>
<svg width="32px" height="32px" viewBox="0 0 32 32" version="1.1" xmlns="http://www.w3.org/2000/svg" xmlns:xlink="http://www.w3.org/1999/xlink">
    <title>icn32_story_reward</title>
    <g id="icn32_story_reward" stroke="none" stroke-width="1" fill="none" fill-rule="evenodd">
        <path d="M19.924015,5 C21.8821943,5.02068193 22.8787201,5.23170254 23.9120025,5.78430803 C24.9010858,6.31327555 25.6833033,7.09549305 26.2122708,8.08457632 C26.7648763,9.11785875 26.9758969,10.1143845 26.9965788,12.0725638 L26.9965788,19.924015 C26.9758969,21.8821943 26.7648763,22.8787201 26.2122708,23.9120025 C25.6833033,24.9010858 24.9010858,25.6833033 23.9120025,26.2122708 C22.8787201,26.7648763 21.8821943,26.9758969 19.924015,26.9965788 L12.0725638,26.9965788 C10.1143845,26.9758969 9.11785875,26.7648763 8.08457632,26.2122708 C7.09549305,25.6833033 6.31327555,24.9010858 5.78430803,23.9120025 C5.23170254,22.8787201 5.02068193,21.8821943 5,19.924015 L5,12.0725638 C5.02068193,10.1143845 5.23170254,9.11785875 5.78430803,8.08457632 C6.31327555,7.09549305 7.09549305,6.31327555 8.08457632,5.78430803 C9.11785875,5.23170254 10.1143845,5.02068193 12.0725638,5 L19.924015,5 Z M19.5885764,6.99828935 L12.4080024,6.99828935 L11.8506203,7.00316804 C10.3713349,7.03121779 9.70896741,7.18362809 9.02777399,7.54793432 C8.38722763,7.89050226 7.89050226,8.38722763 7.54793432,9.02777399 C7.18362809,9.70896741 7.03121779,10.3713349 7.00316804,11.8506203 L6.99828935,12.4080024 L6.99828935,19.5885764 L7.00316804,20.1459585 C7.03121779,21.6252439 7.18362809,22.2876114 7.54793432,22.9688048 C7.89050226,23.6093512 8.38722763,24.1060766 9.02777399,24.4486445 C9.70896741,24.8129507 10.3713349,24.965361 11.8506203,24.9934108 L12.4080024,24.9982894 L19.5885764,24.9982894 L20.1459585,24.9934108 C21.6252439,24.965361 22.2876114,24.8129507 22.9688048,24.4486445 C23.6093512,24.1060766 24.1060766,23.6093512 24.4486445,22.9688048 C24.8129507,22.2876114 24.965361,21.6252439 24.9934108,20.1459585 L24.9982894,19.5885764 L24.9982894,12.4080024 L24.9934108,11.8506203 C24.965361,10.3713349 24.8129507,9.70896741 24.4486445,9.02777399 C24.1060766,8.38722763 23.6093512,7.89050226 22.9688048,7.54793432 C22.2876114,7.18362809 21.6252439,7.03121779 20.1459585,7.00316804 L19.5885764,6.99828935 Z M15.9982894,10.7482894 C18.8977843,10.7482894 21.2482894,13.0987945 21.2482894,15.9982894 C21.2482894,18.8977843 18.8977843,21.2482894 15.9982894,21.2482894 C13.0987945,21.2482894 10.7482894,18.8977843 10.7482894,15.9982894 C10.7482894,13.0987945 13.0987945,10.7482894 15.9982894,10.7482894 Z M15.9982894,12.7482894 C14.203364,12.7482894 12.7482894,14.203364 12.7482894,15.9982894 C12.7482894,17.7932148 14.203364,19.2482894 15.9982894,19.2482894 C17.7932148,19.2482894 19.2482894,17.7932148 19.2482894,15.9982894 C19.2482894,14.203364 17.7932148,12.7482894 15.9982894,12.7482894 Z" id="icon_story" fill="#3F8AE0" fill-rule="nonzero"></path>
    </g>
</svg>