<?xml version="1.0" encoding="UTF-8"?>
<svg width="64px" height="64px" viewBox="0 0 64 64" version="1.1" xmlns="http://www.w3.org/2000/svg" xmlns:xlink="http://www.w3.org/1999/xlink">
    <!-- Generator: Sketch 63.1 (92452) - https://sketch.com -->
    <title>icn86_it</title>
    <desc>Created with Sketch.</desc>
    <defs>
        <linearGradient x1="50%" y1="0.364231419%" x2="50%" y2="98.9060262%" id="linearGradient-1">
            <stop stop-color="#C0C0C0" offset="0%"></stop>
            <stop stop-color="#8D8D8D" offset="100%"></stop>
        </linearGradient>
    </defs>
    <g id="icn86_it" stroke="none" stroke-width="1" fill="none" fill-rule="evenodd">
        <g id="icn86_book">
            <rect id="Rectangle" fill="url(#linearGradient-1)" x="0" y="0" width="64" height="64" rx="12"></rect>
            <g id="mouse" transform="translate(19.000000, 9.000000)" fill="#FFFFFF" fill-rule="nonzero">
                <path d="M12.7359307,45 C19.7106789,45 25.3645022,36.2986658 25.3645022,25.5651854 C25.3645022,10.2238681 20.6099617,6.67654165 14.4425521,6.19329762 L14.4425521,3.61855237 C14.4425521,3.36106734 14.6551331,3.15159155 14.9164595,3.15159155 L20.309063,3.15159155 C21.1925596,3.15159155 21.9090206,2.44605526 21.9090206,1.57579578 C21.9090206,0.705536296 21.1925596,0 20.309063,0 L14.9164595,0 C12.8907,0 11.242637,1.62327976 11.242637,3.61855237 L11.242637,6.17785482 C4.97176351,6.59659628 0.107359307,10.047484 0.107359307,25.5651854 C0.107359307,36.2986658 5.76118255,45 12.7359307,45 Z M11.2834893,10.9255174 C11.2834893,10.1355184 11.9338187,9.49511503 12.7358241,9.49511503 C13.5378294,9.49511503 14.1881589,10.1355184 14.1881589,10.9255174 L14.1881589,20.0302553 C14.1881589,20.8202542 13.5379361,21.4606576 12.7359307,21.4606576 C11.9339254,21.4606576 11.283596,20.8202542 11.283596,20.0302553 L11.283596,10.9255174 L11.2834893,10.9255174 Z" id="Shape"></path>
            </g>
        </g>
    </g>
</svg>