<?xml version="1.0" encoding="UTF-8"?>
<svg width="64px" height="64px" viewBox="0 0 64 64" version="1.1" xmlns="http://www.w3.org/2000/svg" xmlns:xlink="http://www.w3.org/1999/xlink">
    <!-- Generator: Sketch 63.1 (92452) - https://sketch.com -->
    <title>icn86_atom</title>
    <desc>Created with Sketch.</desc>
    <defs>
        <linearGradient x1="50%" y1="0.364231419%" x2="50%" y2="98.9060262%" id="linearGradient-1">
            <stop stop-color="#648FFF" offset="0%"></stop>
            <stop stop-color="#3055C2" offset="100%"></stop>
        </linearGradient>
    </defs>
    <g id="icn86_atom" stroke="none" stroke-width="1" fill="none" fill-rule="evenodd">
        <g id="icn86_book">
            <rect id="Rectangle" fill="url(#linearGradient-1)" x="0" y="0" width="64" height="64" rx="12"></rect>
            <g id="atom" transform="translate(11.000000, 14.000000)" fill="#FFFFFF" fill-rule="nonzero">
                <path d="M5.6993358,28.0842196 C8.83988112,28.0842196 11.3951345,25.5547735 11.3987647,22.4443044 L16.00738,21.0032274 C17.443244,23.5675294 20.2043921,25.3071863 23.3682076,25.3071863 C25.0501772,25.3071863 26.6182159,24.8153317 27.9340057,23.9695703 L32.1478655,28.4256778 C31.7672582,29.1432655 31.5506592,29.958966 31.5506592,30.8241839 C31.5506592,33.6781213 33.8945262,36 36.7753761,36 C39.6562261,36 42,33.6781213 42,30.8241839 C42,27.9702465 39.6562261,25.6483679 36.7753761,25.6483679 C36.0229112,25.6483679 35.3078647,25.8079855 34.6608602,26.0929182 L30.3824955,21.5685744 C31.2651805,20.2505072 31.7802895,18.6707445 31.7802895,16.9738735 C31.7802895,15.1704063 31.1987208,13.4990779 30.2119715,12.1337985 L32.4441416,9.86484908 C33.1155332,10.1764308 33.8638095,10.3516321 34.6527622,10.3516321 C37.5336121,10.3516321 39.877386,8.02975349 39.877386,5.17581607 C39.877386,2.32187865 37.5336121,0 34.6527622,0 C31.7719122,0 29.4281383,2.32187865 29.4281383,5.17581607 C29.4281383,6.00470277 29.6269589,6.78803713 29.9780595,7.48330977 L27.6785921,9.8206799 C26.4170684,9.07192476 24.9425758,8.64083728 23.3681145,8.64083728 C18.7298065,8.64083728 14.9563119,12.3789881 14.9563119,16.9739657 C14.9563119,17.2332637 14.9689709,17.4897031 14.9925203,17.7430073 L10.3586801,19.1920145 C9.32604201,17.7415319 7.62312924,16.7914797 5.69924272,16.7914797 C2.5567427,16.7913875 0,19.3243376 0,22.4376652 C0,25.5511772 2.5567427,28.0842196 5.6993358,28.0842196 Z" id="Path"></path>
            </g>
        </g>
    </g>
</svg>