<?xml version="1.0" encoding="UTF-8"?>
<svg width="64px" height="64px" viewBox="0 0 64 64" version="1.1" xmlns="http://www.w3.org/2000/svg" xmlns:xlink="http://www.w3.org/1999/xlink">
    <!-- Generator: Sketch 63.1 (92452) - https://sketch.com -->
    <title>icn86_sport</title>
    <desc>Created with Sketch.</desc>
    <defs>
        <linearGradient x1="50%" y1="0.364231419%" x2="50%" y2="100%" id="linearGradient-1">
            <stop stop-color="#FED038" offset="0%"></stop>
            <stop stop-color="#FFA300" offset="100%"></stop>
        </linearGradient>
    </defs>
    <g id="icn86_sport" stroke="none" stroke-width="1" fill="none" fill-rule="evenodd">
        <g id="icn86_book">
            <rect id="Rectangle" fill="url(#linearGradient-1)" x="0" y="0" width="64" height="64" rx="12"></rect>
            <g id="basketball" transform="translate(11.000000, 11.000000)" fill="#FFFFFF" fill-rule="nonzero">
                <path d="M27.1828626,23.2659468 C26.0774829,22.8892264 24.9684564,22.5303331 23.8636525,22.1886792 C23.1725743,24.6617518 22.3704591,27.0361874 21.4620093,29.2947467 C19.7146879,33.6384917 17.5665968,37.5611444 15.0566038,41.0043258 C17.0178418,41.6498244 19.1090228,42 21.2806265,42 C25.4260402,42 29.2800897,40.7281034 32.490566,38.5473173 C31.7820213,37.7168868 30.9902708,36.6840891 30.2367163,35.4741956 C27.7889116,31.5436089 26.7487914,27.3590346 27.1828626,23.2659468 Z" id="Path"></path>
                <path d="M7.01060318,5.54716981 C4.68357984,7.63647807 2.81642624,10.2512351 1.58490566,13.2114912 C3.76334966,13.5748142 7.08803324,14.177902 11.0557101,15.0566038 C11.4341262,10.3309889 8.95479429,7.22612858 7.01060318,5.54716981 Z" id="Path"></path>
                <path d="M14.2071869,19.0188679 C12.81247,22.7912752 10.0765637,26.032241 6.19370601,28.4804781 C4.81237096,29.3514353 3.48046917,29.9992343 2.37735849,30.4635806 C4.28807881,33.9795285 7.19335637,36.8899443 10.7221921,38.8301887 C15.2683543,33.0561562 18.0769623,26.4043683 19.8113208,20.4297398 C17.8902145,19.9110079 16.0090542,19.4413413 14.2071869,19.0188679 Z" id="Path"></path>
                <path d="M33.4785133,33.5461353 C34.1870686,34.7062314 34.9425113,35.687429 35.5995299,36.4528302 C37.6780115,34.3555496 39.3319336,31.8156983 40.4150943,28.9806645 C37.5128171,27.3326632 34.273029,25.8647803 30.9154286,24.5660377 C30.8030568,27.5585226 31.660386,30.5692023 33.4785133,33.5461353 Z" id="Path"></path>
                <path d="M35.8591842,10.6145857 C36.9072426,10.1430947 37.9247474,9.81475978 38.8301887,9.58576973 C36.0520472,5.37821434 31.7768825,2.20662777 26.7417359,0.79245283 C26.6822529,3.71746531 26.4037181,8.43406408 25.3944353,13.9830739 C25.1487887,15.332774 24.8725885,16.661711 24.5660377,17.9676993 C25.7303215,18.3111347 26.8658788,18.6614249 27.9709841,19.0188679 C29.6887848,14.2855792 33.1169762,11.8482509 35.8591842,10.6145857 Z" id="Path"></path>
                <path d="M40.5176435,13.4716981 C38.0823007,13.9418444 33.5589202,15.5247525 31.6981132,20.8376317 C35.4220306,22.2528069 38.7495714,23.761476 41.6642115,25.3584906 C41.884532,24.1003396 42,22.8046059 42,21.481277 C42,18.6525739 41.4739347,15.9503141 40.5176435,13.4716981 Z" id="Path"></path>
                <path d="M10.3018868,18.4460549 C6.06412867,17.558237 2.55481879,16.9674185 0.46060435,16.6415094 C0.159676175,18.015589 0,19.440357 0,20.9016476 C0,23.0054088 0.328366327,25.0346793 0.937849889,26.9433962 C1.88025629,26.5512839 3.03275772,25.9977589 4.2203245,25.2501532 C7.14699463,23.4074469 9.18445073,21.1249271 10.3018868,18.4460549 Z" id="Path"></path>
                <path d="M11.6356415,4.12244495 C13.650975,6.39838932 15.7753448,10.0992217 15.1375642,15.2252358 C15.2043336,15.2405066 15.2707968,15.2556796 15.3378725,15.2709504 C17.2657115,15.7124347 19.1310691,16.1695814 20.9348641,16.6415094 C21.2276694,15.4094649 21.4741241,14.2270506 21.6813747,13.1111037 C22.7276329,7.47586543 22.9519332,2.71341514 22.9811321,0.079193075 C22.36132,0.0278007828 21.7343614,0 21.1006646,0 C17.1655574,0 13.4772112,1.01169398 10.3018868,2.77772892 C10.7457911,3.17888247 11.1965356,3.6266317 11.6356415,4.12244495 Z" id="Path"></path>
            </g>
        </g>
    </g>
</svg>