<?xml version="1.0" encoding="UTF-8"?>
<svg width="32px" height="32px" viewBox="0 0 32 32" version="1.1" xmlns="http://www.w3.org/2000/svg" xmlns:xlink="http://www.w3.org/1999/xlink">
    <!-- Generator: Sketch 63.1 (92452) - https://sketch.com -->
    <title>icn32_genius_plus</title>
    <desc>Created with Sketch.</desc>
    <g id="icn32_genius_plus" stroke="none" stroke-width="1" fill="none" fill-rule="evenodd">
        <path d="M23.2753906,21.7890625 C26.0976562,21.7890625 28.4023438,19.6503906 28.6855469,16.9257812 L29.8476562,16.9257812 C30.2871094,16.9257812 30.4628906,16.6621094 30.4628906,16.3007812 L30.4628906,15.9296875 C30.4628906,15.5585938 30.2871094,15.3046875 29.8476562,15.3046875 L28.6171875,15.3046875 C28.1191406,12.8242188 25.921875,10.9296875 23.2753906,10.9296875 C20.7363281,10.9296875 18.6074219,12.6777344 18.0117188,15.03125 C17.5625,14.8554688 17.0351562,14.796875 16.6054688,14.796875 C16.1757812,14.796875 15.6484375,14.8554688 15.1992188,15.03125 C14.59375,12.6777344 12.4648438,10.9296875 9.93554688,10.9296875 C7.2890625,10.9296875 5.09179688,12.8242188 4.59375,15.3046875 L3.36328125,15.3046875 C2.9140625,15.3046875 2.74804688,15.5585938 2.74804688,15.9296875 L2.74804688,16.3007812 C2.74804688,16.6621094 2.9140625,16.9257812 3.36328125,16.9257812 L4.52539062,16.9257812 C4.80859375,19.6503906 7.11328125,21.7890625 9.93554688,21.7890625 C12.9140625,21.7890625 15.3164062,19.3671875 15.3652344,16.4472656 C15.7851562,16.2910156 16.234375,16.2324219 16.6054688,16.2324219 C16.9765625,16.2324219 17.4257812,16.2910156 17.8457031,16.4472656 C17.8945312,19.3964844 20.296875,21.7890625 23.2753906,21.7890625 Z M9.93554688,20.3242188 C7.74804688,20.3242188 5.97070312,18.5566406 5.97070312,16.359375 C5.97070312,14.171875 7.74804688,12.3945312 9.93554688,12.3945312 C12.1132812,12.3945312 13.9003906,14.171875 13.9003906,16.359375 C13.9003906,18.5566406 12.1425781,20.3242188 9.93554688,20.3242188 Z M23.2753906,20.3242188 C21.0683594,20.3242188 19.3105469,18.5566406 19.3105469,16.359375 C19.3105469,14.171875 21.0683594,12.3945312 23.2753906,12.3945312 C25.4628906,12.3945312 27.2402344,14.171875 27.2402344,16.359375 C27.2402344,18.5566406 25.4628906,20.3242188 23.2753906,20.3242188 Z" id="glasses" fill="#2975CC" fill-rule="nonzero"></path>
    </g>
</svg>