<?xml version="1.0" encoding="UTF-8"?>
<svg width="32px" height="32px" viewBox="0 0 32 32" version="1.1" xmlns="http://www.w3.org/2000/svg" xmlns:xlink="http://www.w3.org/1999/xlink">
    <!-- Generator: Sketch 63.1 (92452) - https://sketch.com -->
    <title>icn32_income</title>
    <desc>Created with Sketch.</desc>
    <g id="icn32_income" stroke="none" stroke-width="1" fill="none" fill-rule="evenodd">
        <path d="M16.0507812,28.4921875 C22.578125,28.4921875 28.0039062,23.078125 28.0039062,16.5390625 C28.0039062,10.0117188 22.5664062,4.5859375 16.0390625,4.5859375 C9.5,4.5859375 4.09765625,10.0117188 4.09765625,16.5390625 C4.09765625,23.078125 9.51171875,28.4921875 16.0507812,28.4921875 Z M16.0507812,26.5 C10.5195312,26.5 6.1015625,22.0703125 6.1015625,16.5390625 C6.1015625,11.0195312 10.5078125,6.578125 16.0390625,6.578125 C21.5585938,6.578125 26,11.0195312 26.0117418,16.5390625 C26.0234375,22.0703125 21.5703125,26.5 16.0507812,26.5 Z M16.109375,22.2929688 C16.4375,22.2929688 16.6953125,22.046875 16.6953125,21.7070312 L16.6953125,20.8398438 C18.171875,20.6640625 19.2265625,19.8203125 19.578125,18.7773438 C19.6015625,18.6601562 19.6484375,18.5195312 19.6484375,18.3671875 C19.6484375,17.9570312 19.34375,17.6757812 18.9335938,17.6757812 C18.6171875,17.6757812 18.3945312,17.875 18.265625,18.1796875 C17.9960938,18.8359375 17.46875,19.3164062 16.6953125,19.4570312 L16.6953125,13.6328125 C17.4570312,13.7734375 17.984375,14.2539062 18.2421875,14.9101562 C18.3828125,15.2382812 18.6171875,15.4140625 18.9453125,15.4140625 C19.3554688,15.4140625 19.6367188,15.1328125 19.6367188,14.7226562 C19.6367188,14.5820312 19.5898438,14.4414062 19.5664062,14.3242188 C19.2148438,13.2929688 18.1601562,12.4375 16.6953125,12.2617188 L16.6953125,11.3828125 C16.6953125,11.0429688 16.4375,10.8085938 16.109375,10.8085938 C15.78125,10.8085938 15.5351562,11.0429688 15.5351562,11.3828125 L15.5351562,12.2734375 C13.5078125,12.5429688 12.2070312,14.1484375 12.2070312,16.5390625 C12.2070312,18.9648438 13.5078125,20.5585938 15.5351562,20.828125 L15.5351562,21.7070312 C15.5351562,22.046875 15.78125,22.2929688 16.109375,22.2929688 Z M15.5351562,19.4335938 C14.3984375,19.1757812 13.6953125,18.15625 13.6953125,16.5507812 C13.6953125,14.96875 14.4101562,13.9375 15.5351562,13.65625 L15.5351562,19.4335938 Z" id="icon" fill="#FFA000" fill-rule="nonzero"></path>
    </g>
</svg>