<?xml version="1.0" encoding="UTF-8"?>
<svg width="32px" height="32px" viewBox="0 0 32 32" version="1.1" xmlns="http://www.w3.org/2000/svg" xmlns:xlink="http://www.w3.org/1999/xlink">
    <!-- Generator: Sketch 63.1 (92452) - https://sketch.com -->
    <title>icn32_genius</title>
    <desc>Created with Sketch.</desc>
    <g id="icn32_genius" stroke="none" stroke-width="1" fill="none" fill-rule="evenodd">
        <g id="Icons-28/brain_outline_28" transform="translate(3.000000, 3.000000)">
            <g id="brain_outline_28">
                <rect id="Rectangle" x="0" y="0" width="27" height="27"></rect>
                <path d="M13.4810579,2.33617874 L13.691483,2.27255339 C16.4299675,1.47707805 18.7341631,2.34024854 20.1835473,4.45803683 L20.2792272,4.60210904 L20.4590858,4.67663602 C24.2626607,6.30310943 24.8864721,10.3196518 23.1680714,13.3831886 C24.0914261,14.6264906 24.2863495,15.8607187 23.8157484,17.0023621 C23.5111827,17.741216 23.0092102,18.3167763 22.320782,18.8588009 L22.2839772,18.8860733 L22.2887162,19.0737116 C22.3096849,21.5698012 20.9918238,22.8520952 19.0528303,22.8765246 C18.5167292,23.9831113 17.5940437,24.6940608 16.3402575,24.9521932 C15.2236518,25.1820826 14.2415768,24.9652665 13.4630241,24.3254442 C11.9537003,25.4870158 9.32705279,25.0253116 7.99540602,23.1229217 L7.86694153,22.9273948 L7.83242951,22.926481 C5.5775318,22.8268958 4.39657909,21.310896 4.60454649,19.1891897 L4.62404867,19.0172162 L4.56554326,18.9873086 C3.15126286,18.1942774 2.49175262,16.3877753 2.93620528,14.6729396 L2.99014971,14.4828356 C3.12632733,14.0416202 3.32352664,13.6417824 3.57610699,13.2889136 C1.92277909,10.5796883 2.7000141,6.00013231 6.39781513,4.79838793 L6.54297724,4.7535019 L6.72954712,4.51500497 C6.88553289,4.31642437 7.02414785,4.14668213 7.16628006,3.98246988 C8.85479137,2.03165072 10.8185743,1.29092321 13.4810579,2.33617874 Z M14.32009,3.89870799 L14.3189871,22.7386577 C14.7415335,23.2451819 15.2589176,23.4027032 15.9902456,23.2521356 C16.5437091,23.1381873 16.9576951,22.8976947 17.2566407,22.5056533 C16.3332408,22.0146329 15.8092064,21.02497 15.7093164,19.6598078 C15.6743389,19.1817815 16.0335009,18.7659098 16.5115272,18.7309322 C16.9895535,18.6959547 17.4054253,19.0551167 17.4404028,19.533143 C17.5157843,20.5633562 17.8349003,20.9951014 18.453885,21.0949377 C19.9704549,21.3395457 20.7322317,20.7060682 20.5239331,18.5536488 C20.4937879,18.2421488 20.6336884,17.938545 20.8900713,17.7590769 C21.555567,17.2932299 22.0036509,16.8439479 22.2110252,16.3408732 C22.3975404,15.8884011 22.3711672,15.3978994 22.0433124,14.8186377 C20.7986295,15.9325894 19.0097616,16.5294785 17.978916,16.0954383 C17.5371722,15.9094409 17.3298488,15.4005562 17.5158462,14.9588124 C17.7018436,14.5170687 18.2107283,14.3097452 18.6524721,14.4957426 C19.0788368,14.6752646 20.6869212,13.9874104 21.3883201,12.9622891 C23.0304641,10.5622324 22.6245233,7.26190194 19.4098842,6.12998677 C19.2170747,6.06209612 19.0544175,5.92832594 18.9505788,5.75225167 C17.9479155,4.05208345 16.384536,3.34793146 14.32009,3.89870799 Z M8.47867217,5.11839727 L8.22934449,5.41760164 L7.73651649,6.04901004 C7.61481309,6.20548582 7.44320851,6.31558114 7.25024495,6.36098433 C4.67002918,6.96809392 3.96308963,10.0785785 4.87035095,12.0378734 L4.91002462,12.1182915 C6.01720423,11.5168472 7.50148027,11.3475756 9.23731674,11.734911 C9.70511622,11.839296 9.99972185,12.3031432 9.89533685,12.7709426 C9.79095184,13.2387421 9.32710467,13.5333477 8.85930519,13.4289627 C6.50323565,12.9032282 5.0728314,13.6204262 4.64866565,14.9947233 C4.2976899,16.1318847 4.78264188,17.2961944 5.683601,17.5890595 L5.80899818,17.6235097 C6.28982314,17.7320831 6.58378928,18.218846 6.45605681,18.6949397 C5.99479436,20.4141907 6.59850154,21.2938783 8.32966302,21.1878888 C8.69008728,21.165822 9.02651471,21.3692383 9.17441745,21.698658 C9.89393137,23.3012117 11.9063595,23.6202894 12.5852067,22.7713689 L12.5830022,3.85445175 C10.8351077,3.25327794 9.66501452,3.7477583 8.47867217,5.11839727 Z M8.08837075,15.3022067 C9.05342595,15.6641024 9.83475986,16.2192607 10.4143292,16.9644212 C11.0078774,17.7275546 11.3236324,18.6537695 11.3645153,19.716724 C11.3829365,20.1956741 11.009604,20.5988732 10.5306538,20.6172944 C10.0517037,20.6357156 9.64850458,20.2623831 9.63008342,19.7834329 C9.60269827,19.071419 9.40644323,18.4957376 9.04423923,18.0300467 C8.66805632,17.5463829 8.15229793,17.179923 7.47892078,16.9274066 C7.03013421,16.7591116 6.80275083,16.2588682 6.9710458,15.8100817 C7.13934076,15.3612951 7.63958418,15.1339117 8.08837075,15.3022067 Z M17.3809956,7.6806774 C17.6407321,8.57532537 17.9917466,9.16934998 18.4059585,9.48610021 C18.802658,9.78945867 19.380524,9.92764403 20.1743147,9.87289984 C20.6524831,9.83992271 21.0668485,10.2008216 21.0998257,10.6789901 C21.1328028,11.1571585 20.7719039,11.5715239 20.2937355,11.6045011 C19.1077537,11.6862929 18.1154554,11.4490042 17.3515986,10.8648784 C16.6052542,10.2941445 16.0687845,9.38627275 15.7141089,8.16461224 C15.580474,7.7043142 15.8452868,7.22283641 16.3055848,7.08920149 C16.7658829,6.95556658 17.2473607,7.22037936 17.3809956,7.6806774 Z M10.9544037,6.35193866 C11.4193971,6.46818702 11.7021109,6.9393766 11.5858625,7.40437003 C11.3617073,8.30099102 10.885563,8.99140028 10.166406,9.42289445 C9.51848514,9.81164698 8.80079982,10.0073793 8.03026382,10.0073793 C7.55095956,10.0073793 7.16240668,9.61882646 7.16240668,9.13952219 C7.16240668,8.66021793 7.55095956,8.27166505 8.03026382,8.27166505 C8.4885521,8.27166505 8.89728903,8.16019134 9.27338838,7.93453173 C9.57825166,7.75161376 9.7847875,7.4521368 9.90197233,6.98339748 C10.0182207,6.51840405 10.4894103,6.2356903 10.9544037,6.35193866 Z" id="↳-Icon-Color" fill="#F65F5F" fill-rule="nonzero"></path>
            </g>
        </g>
    </g>
</svg>